<svg xmlns="http://www.w3.org/2000/svg" viewBox="0 0 512 512">
  <rect width="512" height="512" rx="108" fill="#2e1065"/>
  <circle cx="256" cy="240" r="140" fill="#F5E6D0" stroke="#1A1A1A" stroke-width="6"/>
  <!-- Mask -->
  <ellipse cx="256" cy="272" rx="80" ry="65" fill="#3A3A3A" stroke="#1A1A1A" stroke-width="4"/>
  <path d="M210,240 Q256,222 302,240 L298,260 Q256,254 214,260 Z" fill="#3A3A3A"/>
  <!-- Ears -->
  <path d="M140,190 Q115,150 125,195 Q130,225 148,240 Q160,232 164,215 Q168,195 155,185 Z" fill="#1A1A1A"/>
  <path d="M372,190 Q397,150 387,195 Q382,225 364,240 Q352,232 348,215 Q344,195 357,185 Z" fill="#1A1A1A"/>
  <!-- Eyes -->
  <circle cx="220" cy="245" r="28" fill="white" stroke="#1A1A1A" stroke-width="5"/>
  <circle cx="292" cy="245" r="28" fill="white" stroke="#1A1A1A" stroke-width="5"/>
  <circle cx="224" cy="243" r="17" fill="#2A1A10"/>
  <circle cx="296" cy="243" r="17" fill="#2A1A10"/>
  <circle cx="224" cy="243" r="9" fill="#0D0805"/>
  <circle cx="296" cy="243" r="9" fill="#0D0805"/>
  <circle cx="215" cy="237" r="7" fill="white"/>
  <circle cx="287" cy="237" r="7" fill="white"/>
  <!-- Nose -->
  <ellipse cx="256" cy="280" rx="28" ry="18" fill="#1A1A1A" stroke="#1A1A1A" stroke-width="3"/>
  <ellipse cx="248" cy="276" rx="5" ry="4" fill="white" opacity="0.25"/>
  <ellipse cx="246" cy="284" rx="6" ry="4" fill="#0A0A0A"/>
  <ellipse cx="266" cy="284" rx="6" ry="4" fill="#0A0A0A"/>
  <!-- Smile -->
  <path d="M256,296 L256,302" stroke="#1A1A1A" stroke-width="4"/>
  <path d="M225,302 Q256,328 287,302" fill="none" stroke="#1A1A1A" stroke-width="5" stroke-linecap="round"/>
  <!-- Tongue -->
  <ellipse cx="259" cy="316" rx="14" ry="11" fill="#F08B9C" stroke="#1A1A1A" stroke-width="3"/>
  <!-- Cheeks -->
  <circle cx="185" cy="270" r="18" fill="#FFB0B0" opacity="0.35"/>
  <circle cx="327" cy="270" r="18" fill="#FFB0B0" opacity="0.35"/>
  <!-- Wrinkles -->
  <path d="M200,210 Q256,200 312,210" fill="none" stroke="#D4B896" stroke-width="3.5" stroke-linecap="round"/>
  <path d="M208,222 Q256,214 304,222" fill="none" stroke="#D4B896" stroke-width="3" stroke-linecap="round"/>
  <!-- Heart -->
  <path d="M370,120 C370,105 355,100 355,112 C355,124 370,138 370,138 C370,138 385,124 385,112 C385,100 370,105 370,120 Z" fill="#ec4899"/>
</svg>
